<svg xmlns="http://www.w3.org/2000/svg" width="104" height="104" viewBox="0 0 104 104">
  <g id="default-avatar" transform="translate(-1340 -729)">
    <rect id="Rectangle_21" data-name="Rectangle 21" width="104" height="104" transform="translate(1340 729)" fill="rgba(181,133,99,0)"/>
    <path id="user" d="M-470.249-320.092c-4.112,0-7.113-.109-9.445-.345a18.5,18.5,0,0,1-5.72-1.285,5.415,5.415,0,0,1-2.827-2.6,9.714,9.714,0,0,1-.759-4.29,9.7,9.7,0,0,1,.76-4.293,5.414,5.414,0,0,1,2.826-2.6,18.507,18.507,0,0,1,5.72-1.285c2.331-.235,5.332-.345,9.445-.345s7.112.109,9.442.344a18.519,18.519,0,0,1,5.723,1.285,5.421,5.421,0,0,1,2.827,2.6,9.707,9.707,0,0,1,.757,4.29,9.722,9.722,0,0,1-.757,4.292,5.419,5.419,0,0,1-2.826,2.6,18.515,18.515,0,0,1-5.723,1.286C-463.138-320.2-466.138-320.092-470.249-320.092Zm0-13.636c-4,0-6.888.1-9.1.327a15.915,15.915,0,0,0-4.653,1,2.069,2.069,0,0,0-1.172.992,6.863,6.863,0,0,0-.415,2.8,6.88,6.88,0,0,0,.414,2.8,2.069,2.069,0,0,0,1.173.993,15.916,15.916,0,0,0,4.654,1c2.214.223,5.107.327,9.1.327s6.885-.1,9.1-.327a15.927,15.927,0,0,0,4.655-1,2.072,2.072,0,0,0,1.172-.992,6.89,6.89,0,0,0,.412-2.8,6.879,6.879,0,0,0-.411-2.794,2.073,2.073,0,0,0-1.175-1,15.935,15.935,0,0,0-4.655-1C-463.363-333.624-466.255-333.728-470.249-333.728Zm0-6.818a10.239,10.239,0,0,1-10.228-10.228A10.238,10.238,0,0,1-470.249-361a10.238,10.238,0,0,1,10.228,10.226A10.239,10.239,0,0,1-470.249-340.546Zm0-17.044a6.825,6.825,0,0,0-6.819,6.816,6.827,6.827,0,0,0,6.819,6.819,6.827,6.827,0,0,0,6.819-6.819A6.825,6.825,0,0,0-470.249-357.591Z" transform="translate(1862.25 1121.546)" fill="#fff"/>
  </g>
</svg>
